<?xml version="1.0" encoding="utf-8"?>
<!-- Generator: Adobe Illustrator 16.0.0, SVG Export Plug-In . SVG Version: 6.00 Build 0)  -->
<!DOCTYPE svg PUBLIC "-//W3C//DTD SVG 1.1//EN" "http://www.w3.org/Graphics/SVG/1.1/DTD/svg11.dtd">
<svg version="1.1" xmlns="http://www.w3.org/2000/svg" xmlns:xlink="http://www.w3.org/1999/xlink" x="0px" y="0px"
	 width="595.28px" height="391px" viewBox="0 0 595.28 391" enable-background="new 0 0 595.28 391" xml:space="preserve">
<g id="Layer_2">
	<path fill="#232323" d="M277.887,62.659c0.958-0.06,12.395-0.778,12.395-0.778l1.078,1.347c0,0-10.718,1.408-10.898,1.348
		c-0.179-0.06-0.418,0.658,0.061,2.575c0.479,1.916-0.719,2.335,5.688,1.976s5.568,0.12,5.748-1.497s-0.898-4.969,0-5.389
		c0.898-0.419,2.335,0.359,2.335,0.359s1.258,5.329,0.6,6.886S291.25,72,285.137,71.82c-6.113-0.18-7.55,0.479-7.55,0.479
		l0.359-6.407l-2.754-1.317C275.192,64.575,276.929,62.718,277.887,62.659z M270.94,66.551c-1.676-0.061-1.437-1.018-1.976-0.719
		c-0.539,0.299-1.497,0.838-1.317,1.257s0.578,1.796,3.192,1.796c2.616,0,4.473-0.24,4.353-0.838s-1.138-2.215-1.138-2.215
		S272.617,66.611,270.94,66.551z M279.803,60.264c1.437-1.018,5.27-5.09,5.748-5.808c0.479-0.719,0.729-3.353-0.414-3.353
		s-6.292,4.131-7.31,5.509c-1.019,1.377-1.917,2.934-1.857,3.293c0.061,0.359,1.318,1.556,1.318,1.556
		S278.366,61.282,279.803,60.264z M271.959,89.529c-2.066-0.135-1.886-2.335-3.728-2.425c-1.841-0.089-2.604,1.4-1.886,2.429
		s4.581,4.442,5.883,4.307c1.302-0.134,5.523-4.177,6.107-5.703c0.584-1.527-0.045-1.707-0.583-1.796c-0.539-0.09-1.796,0-1.796,0
		S274.024,89.663,271.959,89.529z M266.629,63.796c0,0,0.6,6.587,1.438,8.683c0.838,2.096,0,1.078,0,1.078
		s-12.813,1.736-14.669,1.916c-1.856,0.18-4.431-1.676-4.132-2.934c0.3-1.258-1.437-4.312-1.679-5.03s2.278-2.694,2.278-2.694
		s2.456,0.539,4.611,0.479C256.63,65.234,266.629,63.796,266.629,63.796z M263.965,68.197c-0.359-1.033-0.539-1.841-0.539-1.841
		s-4.715,0.961-6.602,0.975c-1.886,0.013-5.658,0.642-5.658,0.642s-0.853,0.269-0.314,1.616c0.539,1.348,0.314,2.187,1.886,2.71
		s3.278,0.209,6.332-0.24c3.054-0.449,4.581-0.27,4.895-0.764C264.279,70.802,264.324,69.23,263.965,68.197z M338.362,102.597
		c3.712,0.359,5.929-2.096,6.168-2.994c0.24-0.898,0.061-1.856-1.677-2.275s-3.054,1.497-4.67,1.556
		c-1.617,0.06-1.977-0.898-2.455-1.437s-2.515-0.359-2.515-0.359s-0.479,1.976,0,2.995
		C333.692,101.1,334.65,102.238,338.362,102.597z M330.639,118.405c0,0,0.897-0.598,2.694-2.096s2.695-4.73,2.695-4.73
		s-3.293-0.718-3.473-0.718l-2.636,2.874c0,0-3.173-3.413-4.491-3.293c-1.317,0.12-0.897,2.036,0.898,4.79
		C328.124,117.985,330.639,118.405,330.639,118.405z M202.261,324.445c0,0-28.562,12.753-33.412,13.112
		c-4.851,0.359-5.209-3.232-3.593-4.49c1.617-1.257,2.695,1.616,15.808-3.772s19.58-9.161,24.43-11.676s3.054-8.803,3.054-8.803
		s-1.796,0.18-8.083-2.155c-6.287-2.335-8.802-4.132-8.802-4.132s0,2.156-0.179,3.054c-0.18,0.898,1.078,2.156-13.832,8.982
		c-14.91,6.825-13.113,15.269-13.113,15.269s1.078,1.796-0.719,2.335c-1.797,0.539-2.694-1.257-2.694-1.257
		s-0.719-3.413,1.616-9.162c2.335-5.747,12.934-12.035,18.862-14.011c5.928-1.977,5.748-5.749,5.748-5.749l-4.67-2.155
		l25.329-77.521l21.196-14.632c0,0-10.418-3.413-19.22-8.263c-8.802-4.851-15.988-4.132-15.988-4.132s-25.508,46.346-28.382,49.04
		c-2.875,2.695-5.209,1.796-5.209,1.796s-3.233,10.06-5.03,11.856c-1.796,1.797-7.544,1.976-9.52,1.437
		c-1.976-0.538-1.976-3.053,0-4.311s4.311,0.538,7.724-2.516c3.413-3.053,3.054-7.185,3.054-7.185s-1.976,0.179-13.832-1.258
		c-10.131-1.228-11.866-2.717-12.157-3.125l1.199,2.227c0,0,0.898,1.438-7.544,5.39c-8.443,3.951-14.011,7.903-14.191,10.239
		c-0.18,2.335,3.593,5.748,16.347,1.616c12.754-4.131,14.012-4.491,15.808-2.155c1.796,2.335-12.754,9.161-23.532,8.802
		c-10.778-0.359-11.676-2.694-12.933-4.49c-1.258-1.797-1.617-4.671,0-5.928c1.616-1.258-0.539-2.156,6.646-5.569
		c7.185-3.413,18.143-10.239,18.143-10.239s-4.191-1.317-4.91-4.071c-0.718-2.754,35.567-49.939,35.567-49.939
		s0.719-0.599-2.156-1.797c-2.874-1.198,0.838-11.975,2.156-19.16c1.318-7.185,7.305-11.018,7.305-11.018s-0.958-0.719-2.515-1.317
		c-1.557-0.598-0.359-0.718-0.359-2.155s5.629-5.749,5.629-5.749s0.958-1.916,2.395-2.395c1.437-0.479,4.311,2.874,4.311,2.874
		s25.388-2.635,34.49-3.593c9.102-0.958,5.509-0.479,15.209-4.91c9.7-4.431,29.58-20.718,29.58-20.718l2.874-0.12
		c0,0,0.599-5.029,1.437-5.987c0.837-0.958,2.156-0.599,5.509-1.676c3.354-1.078,4.551-4.431,4.551-4.431s-7.784,0.479-11.377-1.797
		c-3.592-2.275-4.67-4.909-4.67-4.909s-3.233,2.274-9.46,2.395c-6.228,0.12-27.424,5.149-34.729,6.587
		c-7.305,1.437-41.435,16.167-65.626,26.106c-24.19,9.939-49.579,24.071-60.596,29.341c-11.017,5.27-15.688,10.418-15.688,10.418
		s-2.036,3.952-1.916-2.155c0.12-6.108,53.53-29.939,79.159-41.675c25.627-11.736,53.291-19.76,58.082-22.634
		c4.791-2.875,34.609-7.186,39.639-8.023c5.03-0.837,9.76-3.533,9.76-3.533s1.257-0.479,0-3.114
		c-1.257-2.635-0.778-11.976-0.837-13.233c-0.06-1.257,0.599-1.676,1.017-1.796c0.419-0.12,1.976,0.18,1.857,3.053
		c-0.12,2.875,1.376,14.252,2.934,16.646c1.557,2.396,1.617,4.969,11.137,4.551c9.521-0.419,14.431-5.449,15.089-6.107
		c0.659-0.659,1.916,0.06,1.916,0.06s0.659,1.018,0.18,2.635c-0.479,1.617-3.593,2.215-3.893,2.395c-0.3,0.179,0,4.431,0,5.389
		c0,0.958-1.856,1.677-1.856,1.677l0.778,6.646c0,0,13.292-9.641,15.089-9.7s2.574,1.557,2.275,2.754
		c-0.299,1.197-13.772,8.683-14.251,9.7c-0.479,1.017-0.299,8.683,1.497,8.563s14.431-16.287,14.431-16.287
		s-0.854-2.785-1.078-3.683c-0.225-0.898-1.527-15.718-0.897-22.05c0.628-6.332,4.49-9.925,5.882-14.64
		c1.393-4.715-2.11-7.724-2.964-7.724s-2.335,2.919-2.335,2.919l-2.649,0.5c0,0-0.135-1.264-0.135-2.701
		c0-1.438-1.931-5.569-2.425-6.153c-0.494-0.584-1.078-5.209-1.123-5.748s-1.841,0.179-1.841,0.179s-0.674-2.201-1.617-2.155
		c-0.943,0.045-5.03,2.694-6.557,2.784c-1.526,0.09-3.278-1.662-3.907-1.662c-0.629,0-0.898,0.629-1.796,2.065
		c-0.898,1.438-4.985,4.536-6.557,4.626c-1.572,0.09-2.874-4.266-4.132-4.177c-1.257,0.09-3.952,3.772-4.76,3.772
		s-3.862-2.604-4.446-2.604s-3.817,2.649-3.817,2.649s-0.18,0.988,0,0.898c0.18-0.089,5.434,1.751,6.961,2.56
		s1.393,1.167,0.719,2.155c-0.674,0.988-1.213,2.291-2.335,0.988c-1.123-1.302-6.377-2.604-6.871-2.155
		c-0.495,0.449,0.269,1.707,0.224,3.278c-0.045,1.572-0.809,1.393-1.617,1.393s-0.854-0.449-1.257-1.212
		c-0.404-0.764-0.135-4.042-1.033-4.985c-0.898-0.943-1.168-2.694-1.393-3.682s-1.976-1.662-1.976-1.662s0.673,0.449,0.269,1.796
		c-0.404,1.348-1.033,1.662-3.054,1.348c-2.021-0.314-3.952-3.279-4.176-6.243s1.931-11.811,2.47-13.652
		c0.539-1.841,1.841-3.144,3.683-3.278s2.41,1.048,0.254-1.826c-2.156-2.874-0.718-5.029,3.353-7.425
		c4.071-2.395,14.611,0.719,14.611,0.719s-1.917-2.634,2.395-5.988c4.312-3.353,12.215,2.396,14.371,4.019
		c2.156,1.624,1.677,1.969,4.072,0.532s8.143,0.24,12.454,2.635c4.312,2.395,4.312,5.269,7.186,8.143
		c2.874,2.875,1.438,0.24,4.791,1.198c3.354,0.958,4.071,12.455,2.873,19.162c-1.197,6.707,0,7.424,0,7.424
		s7.425-5.029,24.432-5.748c17.006-0.719,29.22,16.526,32.813,26.106s5.268,25.628,5.748,28.022
		c0.479,2.396,16.287,15.808,22.993,24.43c6.707,8.623,23.232,23.473,23.232,23.473s-0.958,1.916-3.353,2.156
		c-2.396,0.24-41.916-46.227-41.916-46.227s0,0,0,2.396c0,2.396,6.229,15.567,5.51,22.274s-3.593,9.581-3.593,9.581
		s3.593,8.622,3.114,16.766s-2.635,16.047-2.635,16.047s1.436,0.958,2.635,3.113c1.198,2.156,11.976,33.771,19.16,43.353
		c7.186,9.581,28.023,18.203,28.023,18.203s-1.197,3.354-4.071,6.945c-2.875,3.594-10.3,1.916-10.3,1.916s5.988,12.215-5.27,20.598
		c-11.258,8.382-23.231,2.636-26.105,2.155c-2.874-0.479-18.204,16.048-22.755,17.485c-4.551,1.437-6.227-2.155-6.227-2.155
		s-8.383,5.029-21.796,4.07c-13.414-0.958-16.047-13.891-16.047-13.891s-10.061,8.861-17.725,7.664
		c-7.665-1.197-9.341-9.581-9.341-9.581s-8.382,2.156-15.328,1.437c-6.946-0.718-12.874-9.818-13.772-13.411
		c-0.898-3.593-0.359-10.599-0.359-10.599s-4.671,0.538-15.988-0.359c-11.316-0.897-10.418-3.593-10.418-3.593
		s-0.719,1.797-4.132,7.186c-3.413,5.39-13.113,48.321-13.113,48.321l-2.335,0.719c0,0-0.898,9.521-3.413,11.855
		C206.572,324.086,202.261,324.445,202.261,324.445z M354.949,143.284c-2.694-0.449-4.76-2.246-4.491-7.096
		c0.271-4.85,0.271-4.85,0.271-4.85s-2.156,2.964-5.12,5.12s-6.197,2.066-4.85,3.323c1.347,1.257,5.928,1.437,5.748,3.862
		c-0.18,2.425-0.449,4.132-2.335,5.029c-1.887,0.898-2.425,1.438-2.246,2.695c0.18,1.257,1.258,1.078,2.246,0.809
		c0.988-0.27,1.527,0.09,1.796,0.718c0.27,0.629,1.707-1.527,3.862-0.718c2.155,0.808,3.503,2.065,6.826,5.658
		s6.287,6.826,4.939,7.994c-1.347,1.168-2.694,0.359-5.389-3.502c-2.695-3.862-3.144-5.12-3.683-4.132s0.18,0.719-0.719,2.784
		c-0.898,2.066-2.155,6.557-2.155,6.557s7.274,16.347,13.563,16.437c6.287,0.09,10.239-2.155,11.047-4.581
		c0.809-2.425,3.772-15,2.066-22.544c-1.707-7.544-8.084-19.58-9.88-21.735c-1.797-2.155-4.042-4.94-4.939-4.491
		c-0.898,0.449-1.348,3.054-1.438,5.568C359.979,138.704,357.645,143.733,354.949,143.284z M345.549,160.798
		c-1.02,2.095-0.958,5.928,0.538,5.209s2.456-3.832,3.114-5.329c0.658-1.497,0.24-3.833,0-4.82
		c-0.239-0.987-2.874-1.108-2.874-1.108S346.567,158.703,345.549,160.798z M338.663,156.009c-3.144,0.305-3.882,3.003-4.069,3.208
		c-0.038-0.089-0.062-0.154-0.062-0.154c0.008,0.155,0.026,0.191,0.062,0.154c0.199,0.466,1.054,1.966,4.069,2.72
		c3.593,0.898,3.892,0.12,4.729-3.054C344.23,155.71,342.375,155.649,338.663,156.009z M311.898,111.818
		c0.239,5.987,7.544,8.024,12.334,9.341c4.789,1.317,9.7,2.275,10.66,4.072s0.955,11.257,1.674,11.855
		c0.719,0.599,0.839,0.958,1.918,0.599c1.077-0.359,11.734-10.658,11.734-10.658s-0.479-10.658-0.359-14.491
		s1.558-3.832,4.433-5.149c2.873-1.317,2.753-1.677,2.873-7.545c0.121-5.868-2.873-7.065-4.072-7.185
		c-1.198-0.119-3.112,2.993-4.312,2.634c-1.198-0.359-1.796-3.473-1.796-3.473s-2.034-0.479-6.826-3.352
		c-4.791-2.874-9.46-9.102-9.46-9.102s-2.755,1.916-7.785,5.389c-5.029,3.473-10.298,7.305-10.298,7.305v5.509
		c0,0,0.838,0.479,1.797,0.718c0.958,0.24,1.437,1.317,2.993,1.198c1.557-0.12,1.437-0.479,2.274-1.318
		c0.839-0.839,1.199-0.239,2.755-0.239c1.557,0,1.677,1.198,1.557,2.156c-0.121,0.958-2.155,4.191-5.748,4.191
		s-6.346-3.113-6.346-3.113S311.658,105.831,311.898,111.818z M272.857,110.501c0.12,2.036-0.24,5.27,0.718,8.024
		c0.958,2.754,1.623,4.072,1.623,4.072l4.844-5.509c0,0-1.149-8.264-1.473-9.102c-0.323-0.838-1.281-0.958-1.281-0.958
		C274.534,108.465,272.737,108.465,272.857,110.501z M254.295,171.816c0,0,8.383,5.629,11.138,9.341
		c2.754,3.712,2.994,3.233,5.389,3.233s9.461-2.036,14.371-1.677s20.119,1.696,20.119,1.696s1.198-0.258,0.719-1.097
		c-0.479-0.838-3.473-2.275-5.389-8.024c-1.917-5.749-3.473-18.443-2.515-23.472c0.958-5.03,2.036-7.306,4.91-8.024
		c2.875-0.719,9.799-3.16,11.617-2.634c2.52,0.727,6.758,1.437,6.758,5.148c0,6.587-12.148,7.785-12.626,8.862
		c-0.479,1.078-1.677,3.473-1.677,3.473s2.516,1.916,9.102,4.311c6.586,2.395,12.933,4.67,13.412,4.312
		c0.479-0.36,3.233-3.713,3.233-3.713s-2.874-4.431-2.274-5.749c0.599-1.317,4.91-3.353,4.91-3.353s-1.676-3.213,0-5.738
		c1.675-2.525,4.19-4.561,4.19-4.561s-6.57-4.629-11.856-6.227c-5.149-1.557-13.771-1.318-13.771-1.318s0.478,2.634-0.6,2.875
		c-1.078,0.24-8.503-2.994-8.503-2.994s0.24-2.874-0.479-10.778s-2.754-10.06-2.754-10.06s-12.455,14.012-15.09,14.131
		c-2.635,0.119-4.79-8.623-4.79-8.623s-5.339,6.826-6.646,6.826c-3.781,0-5.808-14.97-5.808-14.97l-4.312,1.437
		c0,0-2.156,15.927-4.67,30.897S252.858,170.379,254.295,171.816z M311.539,184.807l-0.779,1.949c0,0,0.718,0.718,1.796-0.449
		c1.078-1.168,1.617-13.742,1.617-13.742s1.257-1.078,1.257-1.437s-3.144-2.066-3.144-2.066l-9.341-4.581c0,0-0.27,4.76,0,8.263
		s2.784,4.76,6.242,9.251C310.562,183.78,311.228,184.535,311.539,184.807z M302.586,151.727c-0.719,0.359-0.809,9.251-0.809,9.251
		s0.898-3.082,1.842-4.64c0.943-1.558,1.842-1.827,1.842-1.827S303.305,151.368,302.586,151.727z M305.281,149.931
		c1.347,1.167,3.143,1.078,3.143,1.078l-3.412-4.311h-1.078C303.934,146.697,303.934,148.763,305.281,149.931z M311.028,150.021
		c0,0,6.108,0,6.647-2.65c0.168-0.826-1.258-1.392-2.155-1.931c-0.898-0.539-5.479-0.718-6.287-0.718c-0.81,0-0.81,0.988-0.81,0.988
		L311.028,150.021z M176.573,163.732c-0.778-0.958-6.167-7.065-6.167-7.065s-4.312,2.455-5.689,8.563
		c-1.377,6.108-3.712,12.035-3.113,15.209c0.599,3.173,1.856,3.772,1.856,3.772s12.874-16.046,13.113-17.543
		C176.813,165.169,177.352,164.69,176.573,163.732z M183.22,159.541c-0.779-3.952-8.263-11.137-9.221-11.197
		c-0.958-0.06-3.292,2.395-3.292,2.395l9.041,11.99l1.736-0.074C181.483,162.655,183.999,163.493,183.22,159.541z M236.332,167.445
		v-2.574c0,0,18.502-13.472,18.742-13.892s3.892-29.4,3.892-29.4s-5.388,1.317-14.25,8.083
		c-8.863,6.767-20.631,14.251-21.976,14.552c-7.384,1.649-41.555,5.268-41.555,5.268v0.24c0,0,4.97,11.196,8.323,12.155
		C192.86,162.835,236.332,167.445,236.332,167.445z M240.522,167.894l4.851,1.078l3.593,2.065h0.988l3.054-13.473L240.522,167.894z
		 M227.948,236.005c0.24,6.586,3.354,13.772,6.946,16.407c3.593,2.634,19.161,1.677,22.394,1.677s4.791,2.154,4.431,5.508
		s-0.359,4.192,0.718,7.665s2.754,6.466,9.94,10.299c7.185,3.833,15.089-0.719,16.047-1.077c0.958-0.359,1.917-0.479,3.473,2.395
		c1.557,2.875,0.24,4.312,6.228,6.826c5.988,2.516,13.173-3.593,13.533-5.148c0.358-1.557,4.91-4.312,4.91-4.312
		s-2.875,2.634,7.186,12.095c10.06,9.46,18.202,3.593,22.154,3.233c3.951-0.36,7.903-5.149,7.903-5.149s0,0,1.677,1.197
		s0.719,1.558,1.197,2.515s4.073,0,10.18-5.029c6.107-5.03,8.502-10.898,13.173-11.856c4.67-0.959,13.892,2.875,22.633,0
		c8.743-2.874,8.264-12.335,7.666-16.525c-0.598-4.193-0.6-6.588,1.197-7.665c1.797-1.078,2.515,0.958,6.587,1.438
		c4.073,0.478,3.832-3.594,3.832-3.594s-13.652-5.508-23.232-15.208c-9.579-9.7-21.796-48.322-23.352-48.382
		c-1.557-0.061-6.049,4.491-11.197,3.772c-5.149-0.718-8.204-2.874-11.198-8.921c-2.995-6.047-5.628-7.844-8.742-9.76
		c-3.114-1.917-2.035-3.712-2.035-3.712s-1.019,0.658-2.395,0.719c-1.378,0.06-2.815-0.719-2.815-0.719s0.301,2.275-0.299,4.071
		c-0.6,1.797-0.898,2.096-4.013,4.491c-3.114,2.396-15.089-1.496-16.167-1.496s0,0.958,0.3,1.916
		c0.301,0.958-0.659,9.461-1.197,12.215c-0.539,2.754-2.035,4.491-3.832,5.03c-1.797,0.539-5.33-3.413-5.33-3.413
		s1.797-0.299-17.784-1.917c-19.58-1.617-39.52,10.778-47.962,17.963c0,0-2.575,2.155-6.886,9.82
		C229.505,221.036,227.709,229.418,227.948,236.005z M111.528,223.881c1.262,1.852,2.509,3.569,3.661,5.158
		c0.293,0.394,0.581,0.78,0.861,1.158c0.238,0.3,0.501,0.758,0.742,1.116c0.478,0.761,0.989,1.463,1.372,2.142
		c0.802,1.339,1.559,2.539,2.204,3.516c0.619,0.981,1.237,1.696,1.599,2.199c0.389,0.487,0.597,0.748,0.597,0.748l0.239-0.159
		c0,0-0.13-0.306-0.372-0.879c-0.231-0.58-0.664-1.352-1.05-2.445c-0.411-1.07-0.927-2.36-1.565-3.89
		c-0.308-0.771-0.679-1.533-1.08-2.343c-0.216-0.418-0.364-0.789-0.649-1.275c-0.24-0.411-0.485-0.833-0.735-1.263
		c-1.023-1.708-2.132-3.562-3.361-5.488c-0.604-0.971-1.317-1.902-2.03-2.866c-0.714-0.963-1.437-1.952-2.213-2.926
		c-1.484-1.995-3.256-3.894-4.95-5.886c-0.871-0.973-1.722-1.993-2.668-2.902c-0.947-0.913-1.897-1.83-2.847-2.745
		c-0.944-0.927-1.888-1.854-2.829-2.779c-0.968-0.898-1.919-1.803-2.838-2.723c-0.915-0.925-1.821-1.843-2.672-2.802
		c-0.425-0.479-0.849-0.956-1.269-1.429c-0.435-0.455-0.867-0.906-1.294-1.353c-1.715-1.785-3.335-3.554-4.988-5.099
		c-1.698-1.566-3.225-2.88-4.678-4.259c-1.463-1.315-2.826-2.545-4.117-3.546c-0.618-0.525-1.264-0.956-1.841-1.364
		c-0.565-0.417-1.129-0.771-1.654-1.062c-1.019-0.639-1.851-0.988-2.428-1.228c-0.576-0.238-0.885-0.365-0.885-0.365l-0.147,0.248
		c0,0,0.256,0.212,0.736,0.611c0.489,0.385,1.218,0.954,2.024,1.73c0.837,0.725,1.803,1.734,2.915,2.853
		c1.101,1.153,2.344,2.456,3.699,3.876c0.708,0.703,1.443,1.434,2.206,2.191c0.761,0.736,1.697,1.507,2.492,2.195
		c1.724,1.466,3.667,2.874,5.637,4.374c2.049,1.422,3.806,3.237,5.649,5.051c0.906,0.92,1.794,1.871,2.674,2.834
		c0.811,1.03,1.624,2.063,2.438,3.096c1.618,2.087,3.23,4.187,4.753,6.245c1.531,2.065,3.162,3.982,4.511,6.035
		C108.768,220.192,110.189,222.081,111.528,223.881z M165.423,302.993c1.168,0.613,2.215,1.197,3.249,1.52
		c1.008,0.363,1.859,0.709,2.635,0.81c1.508,0.293,2.352,0.398,2.351,0.398l0.081-0.274c0,0-0.741-0.472-2.008-1.189
		c-0.648-0.319-1.355-0.88-2.194-1.419c-0.85-0.518-1.729-1.236-2.695-1.98c-0.501-0.343-0.986-0.757-1.476-1.203
		c-0.492-0.441-1.03-0.853-1.559-1.31c-0.993-0.999-2.153-1.909-3.244-3.002c-1.151-1.034-2.236-2.18-3.385-3.33
		c-1.119-1.255-2.333-2.385-3.513-3.606c-2.416-2.384-4.492-5.06-5.878-7.92c-0.712-1.416-1.358-2.795-2.024-4.053
		c-0.707-1.231-1.376-2.395-1.994-3.468c-0.684-1.054-1.158-2.043-1.659-2.909c-0.239-0.437-0.481-0.842-0.713-1.219
		c-0.2-0.401-0.383-0.771-0.549-1.104c-0.667-1.339-1.145-2.073-1.145-2.073l-0.274,0.086c0,0,0.033,0.874,0.258,2.353
		c0.079,0.74,0.283,1.627,0.636,2.645c0.309,1.024,0.711,2.187,1.275,3.339c0.285,0.583,0.582,1.188,0.888,1.816
		c0.315,0.623,0.725,1.213,1.12,1.838c0.794,1.249,1.846,2.412,2.917,3.61c1.052,1.215,2.154,2.438,3.108,3.804
		c1.009,1.322,1.904,2.771,2.791,4.22c0.873,1.457,1.801,2.936,2.788,4.25c1.063,1.327,2.107,2.666,3.236,3.83
		c1.076,1.216,2.292,2.244,3.443,3.196C163.12,301.521,164.244,302.386,165.423,302.993z M527.67,248.656l-0.043,0.187
		c-0.063,0.262-0.158,0.494-0.246,0.626c-0.184,0.354-0.373,0.562-0.563,0.804c-0.76,0.86-1.537,1.473-2.329,2.088
		c-3.168,2.388-6.478,4.362-9.798,6.345c-13.322,7.804-27.034,14.765-40.732,21.757c-13.729,6.924-27.523,13.701-41.317,20.477
		l-20.67,10.196c-6.896,3.391-13.695,6.932-20.679,10.203l-10.416,4.992c-3.458,1.69-7.019,3.147-10.523,4.733
		c-7.036,3.109-14.053,6.265-21.169,9.175c-7.099,2.953-14.164,5.987-21.314,8.813c-7.138,2.855-14.248,5.78-21.421,8.542
		c-14.304,5.638-28.683,11.069-43.106,16.396l-0.308,0.114l-0.26-0.239c-1.16-1.061-2.283-2.163-3.473-3.194
		c-1.238-0.98-2.431-2.014-3.707-2.948c-1.286-0.922-2.536-1.89-3.854-2.774l-3.931-2.685c-2.631-1.784-5.284-3.532-7.853-5.442
		l-1.932-1.419l-1.851-1.503c-1.227-1.012-2.481-2.01-3.712-2.982l-1.856-1.474l-1.959-1.341c-1.301-0.902-2.61-1.795-3.97-2.614
		c-2.675-1.705-5.42-3.31-8.112-5.006c-1.334-0.866-2.714-1.661-4.012-2.587c-1.294-0.931-2.641-1.783-3.891-2.774
		c-1.226-1.023-2.5-1.996-3.685-3.058l-3.357-3.384l0.204-0.203l3.392,3.35c1.191,1.042,2.459,1.989,3.683,2.989
		c1.247,0.97,2.603,1.808,3.897,2.718c1.299,0.907,2.687,1.687,4.025,2.538c2.703,1.664,5.463,3.238,8.167,4.921
		c1.371,0.809,2.697,1.692,4.018,2.588l1.987,1.33l1.893,1.471c1.272,0.985,2.515,1.954,3.751,2.95l1.864,1.483l1.924,1.382
		c2.552,1.857,5.228,3.581,7.874,5.338l3.97,2.65c1.331,0.872,2.606,1.839,3.912,2.754c1.296,0.93,2.52,1.968,3.785,2.947
		c1.131,0.959,2.21,1.983,3.311,2.981c14.255-5.424,28.458-11.001,42.613-16.686c7.146-2.817,14.229-5.793,21.336-8.703
		c7.123-2.878,14.156-5.963,21.223-8.968c7.087-2.961,14.063-6.165,21.061-9.321c3.483-1.608,7.029-3.092,10.461-4.804l10.333-5.051
		c6.914-3.296,13.71-6.927,20.572-10.385l20.576-10.403l41.164-20.743c6.859-3.454,13.706-6.932,20.513-10.475
		c6.801-3.551,13.615-7.082,20.258-10.872c3.301-1.905,6.63-3.84,9.632-6.036c0.733-0.546,1.471-1.138,1.989-1.715
		c0.106-0.136,0.24-0.286,0.272-0.365c0.021-0.026,0.023-0.035,0.027-0.042l-0.001-0.057c0,0-0.149-0.401-0.354-0.738
		c-0.889-1.438-2.219-2.855-3.512-4.205c-5.35-5.372-11.213-10.369-17.091-15.284c-5.888-4.919-11.914-9.68-17.912-14.479
		c-5.985-4.759-12.015-9.469-18.092-14.116c0.005,0.277-0.007,0.543-0.044,0.781c-0.359,2.275-1.438,2.156-1.438,2.156
		s-2.395,12.693-4.55,19.96c-2.156,7.267-7.785,6.985-7.785,6.985s-27.304,4.91-37.842,0s-9.821-24.79-9.94-26.826
		c-0.119-2.037-4.789-6.706-4.431-10.06c0.359-3.353,6.347-7.904,6.347-7.904l1.317-1.197c0,0,1.077-7.425,6.467-17.484
		c5.389-10.06,12.096-10.778,20.719-9.7c8.622,1.078,20.119,10.179,22.034,13.772c1.916,3.592,0.24,16.287,2.037,16.406
		c1.796,0.119,2.515,4.791,2.753,6.467c0.239,1.676,0.839,1.677,1.917,1.197c0.941-0.418,2.34,2.911,2.438,5.277l0.091-0.124
		c6.273,4.441,12.5,8.948,18.691,13.509c6.2,4.549,12.292,9.243,18.337,14.007c6.009,4.814,12.047,9.587,17.597,15.058
		c1.372,1.406,2.739,2.769,3.909,4.585c0.262,0.494,0.605,0.949,0.713,1.913l0.008,0.181
		C527.693,248.269,527.688,248.615,527.67,248.656z M458.719,197.324h2.44c0,0-0.404-1.197-0.045-4.312
		c0.36-3.114-1.557-4.071-1.796-4.43L458.719,197.324z M412.613,183.313l3.833-2.395c0,0,1.197-10.898,6.227-15.089
		s10.179-6.228,17.604-2.994c7.425,3.233,12.694,8.144,12.813,13.652c0.12,5.509-1.197,18.203-0.479,21.078
		c0.719,2.874,1.199,3.952,1.199,3.952l1.436-0.838c0,0-1.078-8.382,1.317-17.844c2.395-9.461-1.916-16.407-9.461-19.879
		c-7.544-3.473-9.46-5.389-15.567-4.311c-6.107,1.078-9.582,3.113-12.336,8.143c-2.753,5.03-6.227,11.497-6.586,14.73
		S412.613,183.313,412.613,183.313z M442.792,193.619l6.348-1.205l1.077-2.395c0,0-0.958-2.275-6.707-1.917
		c-5.747,0.359-5.987,3.952-5.987,3.952s2.156,1.198,3.713,5.868s1.797,6.347,1.797,6.347l7.185-0.479l-0.358-7.623
		c0,0-0.96-0.16-4.073-0.759C442.673,194.809,442.792,193.619,442.792,193.619z M413.689,197.174c0,0,7.814,8.712,17.155,8.802
		s8.981-0.988,8.981-0.988s-0.269-5.12-3.682-9.162s-4.491-6.107-9.385-6.646c-3.618-0.399-9.208,1.257-11.363,2.604
		c-2.156,1.348-1.797,2.695-1.707,3.683C413.779,196.456,413.689,197.174,413.689,197.174z M450.39,177.454
		c0,0-0.183-7.336-4.768-9.537s-8.311-3.326-14.306-2.935c-8.437,0.55-14.306,17.056-14.306,17.056l-1.467,3.301h4.218v-4.952
		c0,0,5.869-5.319,15.039-5.319S450.39,177.454,450.39,177.454z M462.67,206.305l-2.395,1.438c0,0-9.819,4.551-25.986,5.629
		c-16.168,1.078-23.593-6.467-23.593-6.467s-1.437,0.359,0,6.826c1.438,6.467,2.155,7.784,6.587,11.257
		c4.43,3.473,8.742,3.593,18.039,3.593c9.295,0,18.127-0.718,21.72-3.952C460.635,221.395,462.67,206.305,462.67,206.305z
		 M464.946,197.085l-0.959,1.316c0,0-9.341,6.467-12.574,7.545c-3.233,1.078-11.257,2.635-19.279,2.635
		c-8.023,0-14.252-4.91-18.683-7.904c-4.431-2.995-7.066-9.102-7.066-9.102s-0.958,0.24-1.077,2.043
		c-0.12,1.803,1.556,2.987,4.071,7.059c2.515,4.072,4.192,4.791,11.137,8.143c6.946,3.353,5.029,2.037,14.807,2.275
		c9.775,0.24,15.972-2.515,22.558-5.628S464.946,197.085,464.946,197.085z M426.198,196.63c0.002,0.093-0.004,0.183,0.001,0.276
		l0.015,0.578c-0.009,0.189,0.049,0.384,0.039,0.562c-0.003,0.358,0.045,0.708,0.078,1.014c0.003,0.586,0.112,1.078,0.112,1.078
		s0.343-0.301,0.695-0.905c0.154-0.301,0.268-0.674,0.374-1.083c0.09-0.374,0.096-0.776,0.117-1.179
		c0.321,0.072,0.638,0.143,0.941,0.211c0.532,0.121,1.013,0.242,1.436,0.347c0.202,0.066,0.388,0.128,0.552,0.182
		c0.158,0.074,0.297,0.139,0.409,0.191c0.208,0.166,0.326,0.261,0.326,0.261s-0.015-0.143-0.107-0.447
		c-0.137-0.257-0.399-0.608-0.794-0.916c-0.74-0.585-1.849-1.047-2.987-1.34c-0.095-0.336-0.2-0.649-0.337-0.905
		c-0.278-0.6-0.625-0.935-0.625-0.935s-0.117,0.461-0.184,1.084c-0.015,0.162-0.031,0.335-0.044,0.517
		c-0.856-0.127-1.681-0.168-2.349-0.137c-0.928,0.032-1.555,0.206-1.555,0.206s0.572,0.305,1.433,0.607
		C424.43,196.145,425.298,196.397,426.198,196.63z"/>
</g>
</svg>
